<svg id="Capa_1" enable-background="new 0 0 512 512" height="512" viewBox="0 0 512 512" width="512" xmlns="http://www.w3.org/2000/svg"><g><path d="m284.361 210.351-28.36-126.689c-50.728-98.078-193.836-107.733-242.959-6.281-21.24 43.82-16.27 95.14 12.96 133.909.884 1.173 213.245 282.869 218.019 289.209 2.84 3.76 7.27 5.97 11.98 5.97l33.77-236.629 3.08-21.58z" fill="#e62e6b"/><path d="m498.961 77.379c-49.213-101.587-192.246-91.789-242.96 6.282v422.812c4.711 0 9.143-2.211 11.983-5.972 4.666-6.196 213.351-283.029 218.013-289.214 29.229-38.77 34.201-90.085 12.964-133.908z" fill="#b32453"/><path d="m187.221 125.401c.95 2.64 66.66 185.399 68.78 191.289l7.25 27.05-7.25 29.19c-6.23.43-12.69-2.91-15.21-9.87l-63.69-177.129-17.86 87.59c-1.43 6.99-7.57 12-14.7 12h-129.539c-8.29 0-15-6.71-15-15 0-8.28 6.71-15 15-15h117.29l26.12-128.04c3.009-14.798 23.702-16.298 28.809-2.08z" fill="#b3ccff"/><path d="m512 270.521c0 8.29-6.71 15-15 15h-145.009c-5.16 0-9.96-2.65-12.7-7.03l-20.75-33.08-49.8 118.39c-2.43 5.76-7.5 8.78-12.74 9.13v-56.24l46.08-109.53c4.687-11.145 20.063-12.452 26.54-2.15l31.67 50.51h136.709c8.29 0 15 6.72 15 15z" fill="#99f"/></g></svg>